<svg width="48" height="48" viewBox="0 0 48 48" fill="none" xmlns="http://www.w3.org/2000/svg">
<g clip-path="url(#clip0_527_1621)">
<path d="M24.16 48C37.5032 48 48.32 37.1832 48.32 23.84C48.32 10.4968 37.5032 -0.32 24.16 -0.32C10.8168 -0.32 0 10.4968 0 23.84C0 37.1832 10.8168 48 24.16 48Z" fill="#CCE6F1"/>
<path d="M36.5021 13.2129H11.1779C10.6599 13.2129 10.24 13.6277 10.24 14.1394V17.8453H37.44V14.1394C37.44 13.6277 37.0201 13.2129 36.5021 13.2129Z" fill="#0081B7"/>
<path d="M10.24 17.8453V34.3024C10.24 34.8074 10.6599 35.2167 11.1779 35.2167H36.5021C37.0201 35.2167 37.44 34.8074 37.44 34.3024V17.8453H10.24Z" fill="#9BCEE3"/>
<path d="M13.7371 20.5475H16.4571V23.2497H13.7371V20.5475Z" fill="#0081B7"/>
<path d="M19.5657 20.5475H22.2857V23.2497H19.5657V20.5475Z" fill="#CDE3EC"/>
<path d="M25.3943 20.5475H28.1143V23.2497H25.3943V20.5475Z" fill="#0081B7"/>
<path d="M31.2229 20.5475H33.9429V23.2497H31.2229V20.5475Z" fill="#0081B7"/>
<path d="M13.7371 25.1799H16.4571V27.8821H13.7371V25.1799Z" fill="#0081B7"/>
<path d="M19.5657 25.1799H22.2857V27.8821H19.5657V25.1799Z" fill="#0081B7"/>
<path d="M25.3943 25.1799H28.1143V27.8821H25.3943V25.1799Z" fill="#CDE3EC"/>
<path d="M31.2229 25.1799H33.9429V27.8821H31.2229V25.1799Z" fill="#CDE3EC"/>
<path d="M13.7371 29.8122H16.4571V32.5145H13.7371V29.8122Z" fill="#CDE3EC"/>
<path d="M19.5657 29.8122H22.2857V32.5145H19.5657V29.8122Z" fill="#0081B7"/>
<path d="M25.3943 29.8122H28.1143V32.5145H25.3943V29.8122Z" fill="#0081B7"/>
<path d="M31.2229 29.8122H33.9429V32.5145H31.2229V29.8122Z" fill="#0081B7"/>
<path fill-rule="evenodd" clip-rule="evenodd" d="M31.0171 11.2827H31.4286C31.9588 11.2827 32.3886 11.7125 32.3886 12.2427V15.143H30.0571V12.2427C30.0571 11.7125 30.4869 11.2827 31.0171 11.2827Z" fill="#9BCEE3"/>
<path fill-rule="evenodd" clip-rule="evenodd" d="M16.2515 11.2827H16.6629C17.1931 11.2827 17.6229 11.7125 17.6229 12.2427V15.143H15.2915V12.2427C15.2915 11.7125 15.7213 11.2827 16.2515 11.2827Z" fill="#9BCEE3"/>
</g>
<defs>
<clipPath id="clip0_527_1621">
<rect width="48" height="48" fill="white"/>
</clipPath>
</defs>
</svg>
