<svg width="48" height="48" viewBox="0 0 48 48" fill="none" xmlns="http://www.w3.org/2000/svg">
<g clip-path="url(#clip0_527_1612)">
<path d="M24 48C37.2548 48 48 37.2548 48 24C48 10.7452 37.2548 0 24 0C10.7452 0 0 10.7452 0 24C0 37.2548 10.7452 48 24 48Z" fill="#CCE6F1"/>
<mask id="mask0_527_1612" style="mask-type:alpha" maskUnits="userSpaceOnUse" x="7" y="5" width="34" height="26">
<path d="M40.9601 5.76H7.36011V30.4H40.9601V5.76Z" fill="white"/>
</mask>
<g mask="url(#mask0_527_1612)">
<path d="M24.0243 47.0262C33.1933 47.0262 40.6262 39.5932 40.6262 30.4242C40.6262 21.2552 33.1933 13.8223 24.0243 13.8223C14.8553 13.8223 7.42236 21.2552 7.42236 30.4242C7.42236 39.5932 14.8553 47.0262 24.0243 47.0262Z" fill="#0081B7" fill-opacity="0.2"/>
<path fill-rule="evenodd" clip-rule="evenodd" d="M24.179 17.9349C31.0962 17.9349 36.7038 23.5424 36.7038 30.4596C36.7038 37.3769 31.0962 42.9844 24.179 42.9844C17.2618 42.9844 11.6543 37.3769 11.6543 30.4596C11.6543 23.5424 17.2618 17.9349 24.179 17.9349ZM24.4176 24.1376C20.8602 24.1376 17.9763 27.0215 17.9763 30.5789C17.9763 34.1363 20.8602 37.0202 24.4176 37.0202C27.975 37.0202 30.8589 34.1363 30.8589 30.5789C30.8589 27.0215 27.975 24.1376 24.4176 24.1376Z" fill="#2B97C5"/>
<path fill-rule="evenodd" clip-rule="evenodd" d="M22.5568 28.8729C22.0651 29.9127 22.5097 31.1489 23.5494 31.6335C24.5886 32.1183 25.8289 31.6673 26.3203 30.6272C26.6189 29.9948 27.2328 27.3458 28.162 22.68C28.2008 22.485 28.0744 22.2956 27.8798 22.2569C27.7495 22.2311 27.6155 22.2793 27.5313 22.3823C25.5523 24.7349 23.8941 26.8985 22.5568 28.8729Z" fill="#00618A"/>
</g>
</g>
<defs>
<clipPath id="clip0_527_1612">
<rect width="48" height="48" fill="white"/>
</clipPath>
</defs>
</svg>
