<svg width="24" height="24" viewBox="0 0 24 24" fill="none" xmlns="http://www.w3.org/2000/svg">
<path d="M21.5 8V19.8415C21.5 20.4856 20.9408 21 20.2609 21H3.73913C3.05918 21 2.5 20.4856 2.5 19.8415V8H21.5ZM8.5 15.6H6V18.1H8.5V15.6ZM13.5 15.6H11V18.1H13.5V15.6ZM18.5 15.6H16V18.1H18.5V15.6ZM8.5 10.6H6V13.1H8.5V10.6ZM13.5 10.6H11V13.1H13.5V10.6ZM18.5 10.6H16V13.1H18.5V10.6ZM7.17179 2C7.85174 2 8.41092 2.51444 8.41092 3.15854V3.48293H15.5891V3.15854C15.5891 2.51444 16.1483 2 16.8282 2H17.0371C17.7171 2 18.2762 2.51444 18.2762 3.15854V3.48293H20.2609C20.9408 3.48293 21.5 3.99737 21.5 4.64146V7H2.5V4.64146C2.5 3.99737 3.05918 3.48293 3.73913 3.48293H5.72375V3.15854C5.72375 2.51444 6.28293 2 6.96288 2H7.17179Z" fill="#0081B7"/>
</svg>
