<svg width="48" height="48" viewBox="0 0 48 48" fill="none" xmlns="http://www.w3.org/2000/svg">
<g clip-path="url(#clip0_527_1618)">
<path d="M24 48C37.2548 48 48 37.2548 48 24C48 10.7452 37.2548 0 24 0C10.7452 0 0 10.7452 0 24C0 37.2548 10.7452 48 24 48Z" fill="#CCE6F1"/>
<path d="M34.1332 21.3532L32.2684 16.0336C31.7599 14.5837 30.389 13.6119 28.8489 13.6095H19.1218C17.5834 13.6095 16.2087 14.5834 15.7009 16.0324L13.8374 21.3532C12.842 22.0067 12.2121 23.1377 12.2121 24.3793V30.801C12.1947 31.4578 12.5361 32.0722 13.1036 32.4057C13.6711 32.7392 14.3754 32.7392 14.943 32.4057C15.5105 32.0722 15.8519 31.4578 15.8345 30.801V29.6599C15.8345 29.6599 20.6174 29.8962 23.9853 29.8962C27.3533 29.8962 32.1361 29.6599 32.1361 29.6599V30.801C32.1114 31.4623 32.451 32.0841 33.0214 32.4221C33.5918 32.76 34.3017 32.76 34.8721 32.4221C35.4425 32.0841 35.7821 31.4623 35.7573 30.801V24.3793C35.7573 23.1377 35.1273 22.0067 34.1332 21.3532ZM16.3738 19.5938L17.4107 16.6306C17.6646 15.9054 18.3504 15.4195 19.1205 15.4191H28.8489C29.6187 15.4191 30.3041 15.9055 30.5586 16.6306L31.5969 19.5926C31.6742 19.8081 31.6317 20.0484 31.4849 20.2245C31.3382 20.4006 31.1091 20.4862 30.8825 20.4497C29.1071 20.1631 26.8241 19.9432 23.9853 19.9432C21.1453 19.9432 18.8635 20.1631 17.0869 20.4497C16.8605 20.4857 16.6319 20.3998 16.4854 20.2238C16.339 20.0479 16.2966 19.8079 16.3738 19.5926V19.5938ZM16.2868 26.2769C15.5353 26.2769 14.9261 25.6693 14.9261 24.9197C14.9261 24.1701 15.5353 23.5625 16.2868 23.5625C17.0384 23.5625 17.6476 24.1701 17.6476 24.9197C17.6476 25.6693 17.0384 26.2769 16.2868 26.2769ZM26.7018 25.3721H21.2675C20.7665 25.3721 20.3604 24.967 20.3604 24.4673C20.3604 23.9676 20.7665 23.5625 21.2675 23.5625H26.7018C27.2029 23.5625 27.609 23.9676 27.609 24.4673C27.609 24.967 27.2029 25.3721 26.7018 25.3721ZM31.6826 26.2769C30.931 26.2769 30.3218 25.6693 30.3218 24.9197C30.3218 24.1701 30.931 23.5625 31.6826 23.5625C32.4341 23.5625 33.0433 24.1701 33.0433 24.9197C33.0433 25.6693 32.4341 26.2769 31.6826 26.2769Z" fill="#2B97C5"/>
</g>
<defs>
<clipPath id="clip0_527_1618">
<rect width="48" height="48" fill="white"/>
</clipPath>
</defs>
</svg>
