<svg width="48" height="48" viewBox="0 0 48 48" fill="none" xmlns="http://www.w3.org/2000/svg">
<g clip-path="url(#clip0_527_1622)">
<path d="M24 48C37.2548 48 48 37.2548 48 24C48 10.7452 37.2548 0 24 0C10.7452 0 0 10.7452 0 24C0 37.2548 10.7452 48 24 48Z" fill="#CCE6F1"/>
<path d="M10.5601 16.32H37.4401C38.6772 16.32 39.6801 17.3229 39.6801 18.56V29.76C39.6801 30.9971 38.6772 32 37.4401 32H10.5601C9.32295 32 8.32007 30.9971 8.32007 29.76V18.56C8.32007 17.3229 9.32295 16.32 10.5601 16.32Z" fill="#2B97C5"/>
<path d="M21.1201 26.88V20.8H22.3868V23.5062L24.4893 20.8H26.052L23.6884 23.6531L26.2131 26.88H24.6504L22.8482 24.4364L22.3868 25.0106V26.88H21.1201ZM27.4734 26.88V20.8H29.2494L30.6902 24.6011L32.1354 20.8H33.9201V26.88H32.6447V22.4958L30.9688 26.88H30.416L28.7401 22.4958V26.88H27.4734Z" fill="#CDE3EC"/>
<path d="M16.6427 23.5022H19.0161L19.1561 23.6422V24.2938L19.0161 24.4338H16.6427V26.656L16.5027 26.796H15.8175L15.6775 26.656V24.4338H13.3041L13.1641 24.2938V23.6422L13.3041 23.5022H15.6775V21.28L15.8175 21.14H16.5027L16.6427 21.28V23.5022Z" fill="#CDE3EC"/>
</g>
<defs>
<clipPath id="clip0_527_1622">
<rect width="48" height="48" fill="white"/>
</clipPath>
</defs>
</svg>
