<svg width="24" height="24" viewBox="0 0 24 24" fill="none" xmlns="http://www.w3.org/2000/svg">
<path fill-rule="evenodd" clip-rule="evenodd" d="M14.7029 18.2619C14.7029 19.818 13.4577 21.08 11.9211 21.08C10.3844 21.08 9.13922 19.818 9.13922 18.2619C9.13922 16.8714 10.1335 15.7157 11.4414 15.4855V12.5249H5.39813L5.30221 12.4289V8.59451C3.99423 8.36425 3 7.20862 3 5.81812C3 4.26197 4.24521 3 5.78183 3C7.31846 3 8.56367 4.26197 8.56367 5.81812C8.56367 7.20862 7.56944 8.36425 6.26146 8.59451V11.5551H11.4414V8.59451C10.1335 8.36425 9.13922 7.20862 9.13922 5.81812C9.13922 4.26197 10.3844 3 11.9211 3C13.4577 3 14.7029 4.26197 14.7029 5.81812C14.7029 7.20862 13.7087 8.36425 12.4007 8.59451V11.5551H17.5806V8.59451C16.2727 8.36425 15.2784 7.20862 15.2784 5.81812C15.2784 4.26197 16.5236 3 18.0603 3C19.5969 3 20.8421 4.26197 20.8421 5.81812C20.8421 7.20862 19.8479 8.36425 18.5399 8.59451V15.4855C19.8479 15.7157 20.8421 16.8714 20.8421 18.2619C20.8421 19.818 19.5969 21.08 18.0603 21.08C16.5236 21.08 15.2784 19.818 15.2784 18.2619C15.2784 16.8714 16.2727 15.7157 17.5806 15.4855V12.5249H12.4007V15.4855C13.7087 15.7157 14.7029 16.8714 14.7029 18.2619Z" fill="#838A8D"/>
</svg>
