<svg width="48" height="48" viewBox="0 0 48 48" fill="none" xmlns="http://www.w3.org/2000/svg">
<g clip-path="url(#clip0_527_1608)">
<path d="M24 47.9184C37.1496 47.9184 47.8095 37.2585 47.8095 24.1088C47.8095 10.9592 37.1496 0.299316 24 0.299316C10.8503 0.299316 0.19043 10.9592 0.19043 24.1088C0.19043 37.2585 10.8503 47.9184 24 47.9184Z" fill="#CCE6F1"/>
<path fill-rule="evenodd" clip-rule="evenodd" d="M17.4756 39.3846C17.394 39.3846 17.3112 39.3671 17.2389 39.3217C17.0476 39.2076 16.9613 38.9711 17.0383 38.7615L21.9088 25.3809L16.0177 23.7025C15.8673 23.6605 15.7495 23.5429 15.6993 23.3926C15.6538 23.2424 15.69 23.0747 15.7903 22.9559L27.7404 8.77857C27.8815 8.61084 28.123 8.56891 28.3142 8.66908C28.5102 8.77391 28.6058 8.99754 28.5417 9.21069L25.0975 21.1447L31.0201 22.8289C31.1752 22.8743 31.2942 22.992 31.3397 23.1422C31.3852 23.2971 31.3537 23.4614 31.2487 23.5837L17.8314 39.2216C17.7404 39.331 17.6074 39.3846 17.4756 39.3846Z" fill="#5AAACC"/>
</g>
<defs>
<clipPath id="clip0_527_1608">
<rect width="48" height="48" fill="white"/>
</clipPath>
</defs>
</svg>
