<svg width="48" height="48" viewBox="0 0 48 48" fill="none" xmlns="http://www.w3.org/2000/svg">
<g clip-path="url(#clip0_527_1605)">
<path d="M24 48C37.2548 48 48 37.2548 48 24C48 10.7452 37.2548 0 24 0C10.7452 0 0 10.7452 0 24C0 37.2548 10.7452 48 24 48Z" fill="#CCE6F1"/>
<path d="M31.465 25.7821L29.8536 21.153C29.4141 19.8912 28.2295 19.0455 26.8986 19.0435H18.4932C17.1638 19.0435 15.9759 19.891 15.5371 21.1519L13.9268 25.7821C13.0667 26.3507 12.5223 27.335 12.5223 28.4154V34.0036C12.5073 34.5751 12.8023 35.1098 13.2927 35.4C13.7831 35.6902 14.3917 35.6902 14.8821 35.4C15.3726 35.1098 15.6676 34.5751 15.6525 34.0036V33.0106C15.6525 33.0106 19.7856 33.2162 22.6959 33.2162C25.6062 33.2162 29.7393 33.0106 29.7393 33.0106V34.0036C29.7179 34.579 30.0114 35.1201 30.5042 35.4142C30.9971 35.7083 31.6106 35.7083 32.1035 35.4142C32.5964 35.1201 32.8898 34.579 32.8685 34.0036V28.4154C32.8685 27.335 32.3241 26.3507 31.465 25.7821ZM16.1185 24.2511L17.0146 21.6724C17.234 21.0413 17.8266 20.6185 18.4921 20.6182H26.8986C27.5639 20.6182 28.1562 21.0414 28.3761 21.6724L29.2733 24.25C29.3401 24.4376 29.3034 24.6467 29.1765 24.7999C29.0497 24.9531 28.8518 25.0276 28.6559 24.9958C27.1218 24.7465 25.149 24.5551 22.6959 24.5551C20.2418 24.5551 18.27 24.7465 16.7348 24.9958C16.5391 25.0271 16.3416 24.9524 16.215 24.7993C16.0885 24.6462 16.0518 24.4374 16.1185 24.25V24.2511ZM16.0434 30.0667C15.394 30.0667 14.8675 29.5379 14.8675 28.8856C14.8675 28.2334 15.394 27.7046 16.0434 27.7046C16.6928 27.7046 17.2193 28.2334 17.2193 28.8856C17.2193 29.5379 16.6928 30.0667 16.0434 30.0667ZM25.0433 29.2793H20.3474C19.9144 29.2793 19.5635 28.9268 19.5635 28.492C19.5635 28.0571 19.9144 27.7046 20.3474 27.7046H25.0433C25.4763 27.7046 25.8273 28.0571 25.8273 28.492C25.8273 28.9268 25.4763 29.2793 25.0433 29.2793ZM29.3473 30.0667C28.6979 30.0667 28.1714 29.5379 28.1714 28.8856C28.1714 28.2334 28.6979 27.7046 29.3473 27.7046C29.9967 27.7046 30.5232 28.2334 30.5232 28.8856C30.5232 29.5379 29.9967 30.0667 29.3473 30.0667Z" fill="#0081B7"/>
<path d="M36.2237 19.8261C36.2237 15.3804 32.6196 11.7761 28.1738 11.7761V10.4348C33.36 10.4348 37.5651 14.6391 37.5651 19.8261H36.2237ZM32.3996 19.8261C32.4014 17.4943 30.5097 15.6024 28.1738 15.6V14.1913C31.2884 14.1943 33.811 16.7169 33.8086 19.8261H32.3996Z" fill="#5AAACC"/>
</g>
<defs>
<clipPath id="clip0_527_1605">
<rect width="48" height="48" fill="white"/>
</clipPath>
</defs>
</svg>
