<svg width="94" height="41" viewBox="0 0 94 41" fill="none" xmlns="http://www.w3.org/2000/svg">
<path fill-rule="evenodd" clip-rule="evenodd" d="M45.8562 11.5054C45.8562 7.0304 42.2842 3.40079 37.8724 3.40079H36.7758C32.3703 3.40079 28.7952 7.0304 28.7952 11.5054V23.5512H45.8562V11.5054Z" fill="#F47922"/>
<path fill-rule="evenodd" clip-rule="evenodd" d="M36.5659 10.7204C36.5659 12.4589 38.0167 13.8669 39.8089 13.8669C41.6043 13.8669 43.055 12.4589 43.055 10.7204C43.055 8.98187 41.6074 7.57388 39.812 7.57388C38.0198 7.57388 36.5659 8.98187 36.5659 10.7204Z" fill="white"/>
<path fill-rule="evenodd" clip-rule="evenodd" d="M31.9912 10.7331C31.9912 12.1411 33.1693 13.2758 34.6169 13.2758C36.0677 13.2758 37.2427 12.1411 37.2427 10.7331C37.2427 9.33468 36.0677 8.19049 34.6169 8.19049C33.1693 8.19049 31.9943 9.33468 31.9943 10.7331" fill="white"/>
<path fill-rule="evenodd" clip-rule="evenodd" d="M33.821 11.5245C33.821 12.1729 34.3631 12.7005 35.0305 12.7005C35.6979 12.7005 36.24 12.1729 36.24 11.5245C36.24 10.8793 35.6979 10.3549 35.0305 10.3549C34.3631 10.3549 33.821 10.8793 33.821 11.5245ZM39.3075 12.1411C39.3075 12.7895 39.8464 13.3171 40.5138 13.3171C41.1812 13.3171 41.7233 12.7895 41.7233 12.1411C41.7233 11.4959 41.1812 10.9715 40.5138 10.9715C39.8464 10.9715 39.3075 11.4959 39.3075 12.1474" fill="#231F20"/>
<path fill-rule="evenodd" clip-rule="evenodd" d="M42.8701 15.1446C42.9955 15.9964 42.5317 16.9181 41.6575 17.3853C40.7865 17.8525 39.7775 17.7222 39.1509 17.131C39.7932 17.1692 40.5421 17.0039 41.2627 16.6225C41.9834 16.2347 42.538 15.7008 42.867 15.1446" fill="white"/>
<path fill-rule="evenodd" clip-rule="evenodd" d="M76.093 21.1357C75.7483 21.3264 75.3629 21.3454 75.0903 21.1357C74.8961 20.9767 74.7989 20.732 74.8021 20.4555C74.4261 20.6208 74.0281 20.6144 73.7367 20.3919C73.4955 20.1949 73.3795 19.8834 73.3921 19.5338C73.0631 19.6291 72.7341 19.5974 72.4897 19.4067C72.2077 19.1842 72.098 18.8091 72.1513 18.4023C71.9413 18.4341 71.7377 18.4023 71.5779 18.2752C71.2645 18.0305 71.2269 17.5442 71.4463 17.0897C69.3971 16.025 67.0157 15.4179 64.4777 15.4179C61.8896 15.4179 59.4644 16.0536 57.3839 17.1564C57.5719 17.5887 57.5186 18.0464 57.2209 18.2784C57.0643 18.4055 56.8575 18.4373 56.6475 18.4055C56.7008 18.8123 56.5911 19.1905 56.3091 19.4067C56.0585 19.5974 55.7326 19.6355 55.4067 19.5338C55.4193 19.8834 55.3033 20.2012 55.0558 20.3919C54.7738 20.6144 54.3727 20.624 53.9967 20.4555C53.9967 20.7352 53.9027 20.9831 53.7022 21.1388C53.4641 21.3295 53.1319 21.3295 52.8186 21.1929C52.3235 21.9239 51.9099 22.7026 51.6091 23.5289H56.2339C56.6413 22.925 57.1426 22.3657 57.7379 21.8571C59.408 20.4523 61.7956 19.5306 64.4746 19.537C67.1505 19.5306 69.5381 20.4491 71.2113 21.8571C71.8066 22.3657 72.3079 22.9282 72.7153 23.5289H77.3401C77.0267 22.6803 76.6006 21.8762 76.0867 21.1357" fill="#231F20"/>
<path fill-rule="evenodd" clip-rule="evenodd" d="M76.4 19.2605C76.2057 19.1111 75.9456 19.0793 75.6887 19.1524C75.7514 18.7456 75.6417 18.3642 75.3597 18.1417C75.1184 17.951 74.7957 17.9192 74.473 18.0146C74.4855 17.6745 74.3727 17.3662 74.1283 17.1723C73.8557 16.9626 73.486 16.9498 73.1256 17.0929V8.30171C73.1256 3.71861 69.4596 0 64.9476 0H63.8259C59.3076 0 55.6479 3.71861 55.6479 8.30171V17.0865C55.2938 16.9498 54.9335 16.9657 54.6672 17.1723C54.4228 17.363 54.31 17.6745 54.3225 18.0146C53.9998 17.9192 53.6739 17.951 53.4326 18.1417C53.1506 18.3642 53.0441 18.7456 53.1036 19.1524C52.8436 19.0793 52.5866 19.1111 52.3924 19.2636C52.0038 19.5751 52.0164 20.2585 52.4174 20.7892C52.8248 21.3232 53.4671 21.5043 53.8588 21.196C54.0562 21.0435 54.1502 20.7988 54.1502 20.5286C54.5262 20.6875 54.9147 20.6812 55.1967 20.4587C55.4411 20.268 55.5539 19.9597 55.5414 19.6164C55.8641 19.7181 56.19 19.6864 56.4312 19.4957C56.7132 19.2795 56.8166 18.9045 56.7634 18.5104C56.9702 18.5422 57.1707 18.504 57.3274 18.3833C57.6219 18.1512 57.672 17.6999 57.484 17.2709C59.5332 16.1839 61.9271 15.5673 64.4776 15.5641C66.978 15.5641 69.3249 16.1616 71.3396 17.2168C71.1297 17.6618 71.1704 18.1385 71.4775 18.3801C71.6342 18.5072 71.8347 18.539 72.0415 18.5072C71.9851 18.9077 72.0948 19.2827 72.3736 19.4988C72.6149 19.6895 72.9376 19.7213 73.2635 19.626C73.251 19.966 73.3638 20.2743 73.6082 20.465C73.8902 20.6875 74.2787 20.6971 74.6516 20.5286C74.6516 20.8051 74.7456 21.0498 74.9398 21.2024C75.3346 21.5107 75.9801 21.3295 76.3812 20.7956C76.7885 20.2648 76.7979 19.5815 76.4062 19.27" fill="#019EDB"/>
<path fill-rule="evenodd" clip-rule="evenodd" d="M65.5742 7.14481C65.5742 8.87062 64.1956 10.2722 62.4942 10.2722C60.7959 10.2722 59.4172 8.8738 59.4172 7.14481C59.4172 5.41581 60.7959 4.01736 62.4942 4.01736C64.1956 4.01736 65.5742 5.41581 65.5742 7.14481Z" fill="white"/>
<path fill-rule="evenodd" clip-rule="evenodd" d="M70.0299 7.16389C70.0299 8.56234 68.9176 9.69381 67.5421 9.69381C66.1634 9.69381 65.0542 8.55916 65.0542 7.16389C65.0542 5.76544 66.1665 4.63715 67.5421 4.63715C68.9207 4.63715 70.0299 5.76544 70.0299 7.16071" fill="white"/>
<path fill-rule="evenodd" clip-rule="evenodd" d="M68.2594 8.11738C68.2594 8.76258 67.7456 9.28382 67.1126 9.28382C66.4766 9.28382 65.9627 8.76576 65.9627 8.12056C65.9627 7.47855 66.4766 6.95731 67.1095 6.95731C67.7362 6.95731 68.2532 7.47855 68.2532 8.12056L68.2594 8.11738ZM63.3871 8.58141C63.3871 9.22343 62.8701 9.74785 62.2403 9.74785C61.6042 9.74785 61.0935 9.22343 61.0935 8.58141C61.0935 7.9394 61.6042 7.41816 62.2403 7.41816C62.867 7.41816 63.384 7.9394 63.384 8.58141" fill="#231F20"/>
<path fill-rule="evenodd" clip-rule="evenodd" d="M59.1321 11.124C59.0068 11.9726 59.4674 12.888 60.3353 13.3488C61.2033 13.816 62.2091 13.6889 62.8232 13.1009C62.1871 13.1391 61.4446 12.9738 60.7302 12.5924C60.0157 12.211 59.4611 11.6802 59.1321 11.1304" fill="white"/>
<path fill-rule="evenodd" clip-rule="evenodd" d="M84.8193 26.5197H87.5703V27.6321C87.8523 27.0918 88.3662 26.1764 90.0582 26.1764V29.1704H89.9517C88.4539 29.1704 87.7458 29.7266 87.7458 31.125V36.4646H84.8161V26.5165L84.8193 26.5197ZM31.8597 36.4709H28.93V35.3903C28.3973 36.3629 27.1816 36.811 26.0348 36.811C22.9234 36.811 21.1061 34.3319 21.1061 31.4842C21.1061 28.2233 23.4185 26.1764 26.0317 26.1764C27.6359 26.1764 28.5383 26.971 28.9237 27.5749V26.5197H31.8534V36.4678L31.8597 36.4709ZM24.042 31.5382C24.042 32.4536 24.7125 34.03 26.4766 34.03C27.52 34.03 28.1529 33.5278 28.5258 32.9176C28.7702 32.5235 28.8955 32.0912 28.9331 31.6463C28.9645 31.2013 28.8767 30.75 28.6825 30.3368C28.3691 29.6567 27.6955 28.9574 26.4578 28.9574C24.7815 28.9574 24.0451 30.394 24.0451 31.5255V31.5414L24.042 31.5382ZM71.1579 31.5033C70.3965 34.6402 67.7113 36.722 64.5529 36.722C60.4576 36.722 57.6689 33.4039 57.6689 29.8188C57.6689 26.4307 60.2445 22.9536 64.5184 22.9536C68.6168 22.9536 70.8039 26.1637 71.1611 28.2391H67.6611C67.2914 27.2539 66.3044 25.9253 64.5027 25.9253C62.2624 25.9253 61.0059 27.915 61.0059 29.8029C61.0059 31.8052 62.347 33.744 64.5153 33.744C66.5989 33.744 67.4481 31.9641 67.658 31.5033H71.1548H71.1579ZM51.4179 33.9569C50.08 33.9569 48.9959 32.8572 48.9959 31.5001C48.9959 30.1493 50.08 29.0528 51.4148 29.0528C52.7465 29.0528 53.8275 30.1493 53.8275 31.5001C53.8275 32.8604 52.7465 33.9601 51.4148 33.9601L51.4179 33.9569ZM51.8033 26.1796C50.2993 26.1796 49.3343 26.8629 48.7013 27.6098V26.5229H45.944V39.7891H48.8799V35.5778C49.2309 35.9529 50.0581 36.8174 51.8253 36.8174C54.6139 36.8174 56.5879 34.4654 56.5879 31.5954C56.5879 29.2816 55.2845 26.1796 51.8065 26.1796H51.8033ZM39.3233 33.9569C37.9916 33.9569 36.9106 32.8572 36.9106 31.5001C36.9106 30.1493 37.9916 29.0528 39.3233 29.0528C40.6612 29.0528 41.7453 30.1493 41.7453 31.5001C41.7453 32.8604 40.6612 33.9601 39.3264 33.9601L39.3233 33.9569ZM39.6836 26.1796C38.1796 26.1796 37.2083 26.8629 36.5816 27.6098V26.5229H33.8243V39.7891H36.7539V35.5778C37.1049 35.9529 37.9321 36.8174 39.6993 36.8174C42.4879 36.8174 44.4619 34.4654 44.4619 31.5954C44.4619 29.2816 43.1585 26.1796 39.6805 26.1796H39.6836ZM82.8766 36.4709H79.9438V35.3903C79.4111 36.3629 78.1985 36.811 77.0486 36.811C73.9466 36.811 72.1293 34.3319 72.1293 31.4842C72.1293 28.2233 74.4354 26.1764 77.0486 26.1764C78.656 26.1764 79.5553 26.971 79.9438 27.5749V26.5197H82.8766V36.4678V36.4709ZM75.0558 31.5382C75.0558 32.4536 75.7263 34.03 77.4904 34.03C78.5338 34.03 79.1699 33.5278 79.5427 32.9176C79.7934 32.5235 79.9125 32.0912 79.9501 31.6463C79.9814 31.2013 79.8937 30.75 79.6994 30.3368C79.3861 29.6567 78.7124 28.9574 77.4747 28.9574C75.7984 28.9574 75.0621 30.394 75.0621 31.5255V31.5414L75.0558 31.5382ZM10.5906 26.5197H13.326V27.5749C13.6613 27.0918 14.2785 26.1764 16.0269 26.1764C19.3295 26.1764 19.6616 28.9034 19.6616 30.2447V36.4678H16.7319V31.0329C16.7319 29.9427 16.5032 28.9765 15.1966 28.9765C13.749 28.9765 13.5203 30.0317 13.5203 31.0551V36.4709H10.5906V26.5229V26.5197ZM3.35261 32.0753C3.35261 33.6168 4.29261 33.887 4.71247 33.887C5.50521 33.887 5.98461 33.2195 5.98461 32.6157C5.98461 31.9164 5.43627 31.7003 3.42467 30.8358C2.50661 30.4671 0.228673 29.5359 0.228673 27.0409C0.228673 24.3712 2.61001 22.9536 4.80334 22.9536C6.60187 22.9536 9.14301 23.8881 9.19627 27.0791H5.89061C5.82794 26.6341 5.71827 25.7887 4.69367 25.7887C4.11087 25.7887 3.54687 26.2019 3.54687 26.828C3.54687 27.4319 3.90094 27.5971 6.24781 28.6714C8.68554 29.7838 9.30281 30.928 9.30281 32.4726C9.30281 34.5894 8.20614 36.722 4.74381 36.722C1.31907 36.722 -0.05646 34.6784 0.0312733 32.0817H3.35261V32.0753ZM92.5837 27.4922H92.7027C92.8437 27.4922 92.9534 27.4446 92.9534 27.3333C92.9534 27.2284 92.8845 27.1617 92.7247 27.1617C92.662 27.1617 92.6119 27.1617 92.5868 27.1712L92.5805 27.4891L92.5837 27.4922ZM92.5711 28.1088H92.3205L92.3267 27.0028C92.427 26.9901 92.568 26.971 92.7466 26.971C92.9534 26.971 93.0443 27.0028 93.1226 27.0664C93.1853 27.1109 93.2291 27.1935 93.2291 27.2984C93.2291 27.4319 93.1289 27.5209 93.0004 27.5526V27.5717C93.1101 27.6035 93.1633 27.6925 93.1947 27.8419C93.226 28.0135 93.2573 28.0739 93.273 28.1152H93.0067C92.9753 28.0707 92.9565 27.9785 92.9221 27.8419C92.9033 27.7274 92.8375 27.6734 92.7027 27.6734H92.5774V28.1088H92.5711ZM91.9069 27.5304C91.9006 28.023 92.2641 28.4203 92.7529 28.4203C93.2229 28.433 93.5832 28.0389 93.5863 27.5495C93.5863 27.06 93.2354 26.6595 92.7497 26.6532C92.2797 26.6532 91.9131 27.0473 91.91 27.5304H91.9069ZM93.8652 27.5463C93.8589 28.166 93.3639 28.6587 92.7372 28.6491C92.1168 28.6491 91.6217 28.1502 91.628 27.5304C91.628 26.9106 92.1293 26.4275 92.7654 26.4339C93.3827 26.4339 93.8683 26.9265 93.8621 27.5463H93.8652Z" fill="#231F20"/>
<path fill-rule="evenodd" clip-rule="evenodd" d="M39.3233 29.0496C37.9916 29.0496 36.9106 30.1461 36.9106 31.4969C36.9106 32.8572 37.9916 33.9569 39.3233 33.9569C40.6612 33.9569 41.7454 32.8572 41.7454 31.5001C41.7454 30.1493 40.6612 29.0528 39.3264 29.0528" fill="#F47922"/>
<path fill-rule="evenodd" clip-rule="evenodd" d="M51.4179 29.0496C50.08 29.0496 48.9958 30.1461 48.9958 31.4969C48.9958 32.8572 50.08 33.9569 51.4148 33.9569C52.7465 33.9569 53.8274 32.8572 53.8274 31.5001C53.8274 30.1493 52.7465 29.0528 51.4148 29.0528" fill="#019EDB"/>
</svg>
