<svg width="24" height="14" viewBox="0 0 24 14" fill="none" xmlns="http://www.w3.org/2000/svg">
<path fill-rule="evenodd" clip-rule="evenodd" d="M22.4563 5.68296C23.3964 6.2883 23.4273 8.70918 23.3964 11.1877C23.3932 11.4453 23.2707 11.6904 23.0142 11.7359C22.987 11.7408 22.9595 11.7432 22.9319 11.7432H16.9658C16.9927 11.9522 17.0139 12.2617 17.0292 12.6715C17.0389 12.9325 16.8358 13.152 16.5754 13.1618L16.5578 13.1621H6.84433C6.58382 13.1621 6.37264 12.9503 6.37264 12.6891C6.37264 12.6812 6.37284 12.6733 6.37323 12.6654C6.3935 12.2611 6.42092 11.9537 6.45548 11.7432H0.471691C0.211183 11.7432 0 11.5314 0 11.2702L0.000113966 11.0112C0.00265921 9.04241 0.0620482 6.21439 1.44779 5.65512C1.85928 5.48905 2.10057 5.43802 2.40863 5.59267C3.33784 6.05915 4.09957 6.29103 4.69382 6.2883C5.31319 6.28547 6.06871 6.03291 6.96039 5.53062C7.20603 5.39224 7.81077 5.44067 8.14837 5.68296C8.3345 5.81654 8.988 6.29471 9.23659 6.43698C9.29343 6.46951 9.34943 6.50258 9.4052 6.53583L9.51657 6.60249L9.62834 6.66901C10.1337 6.96717 10.6827 7.24243 11.7017 7.23777C12.985 7.2319 13.759 6.90271 14.3875 6.43698C14.5031 6.35131 15.0851 5.85074 15.3791 5.65512C15.6732 5.4595 16.1414 5.37597 16.4495 5.53062C17.3787 5.99709 18.4075 6.29103 19.0018 6.2883C19.6211 6.28547 20.3767 6.03291 21.2683 5.53062C21.514 5.39224 21.933 5.34597 22.4563 5.68296ZM11.6975 0C13.5131 0 14.9848 1.47178 14.9848 3.2873C14.9848 5.10283 13.5131 6.5746 11.6975 6.5746C9.882 6.5746 8.41022 5.10283 8.41022 3.2873C8.41022 1.47178 9.882 0 11.6975 0ZM18.8536 0C20.4022 0 21.6575 1.25534 21.6575 2.80387C21.6575 4.35241 20.4022 5.60775 18.8536 5.60775C17.3051 5.60775 16.0498 4.35241 16.0498 2.80387C16.0498 1.25534 17.3051 0 18.8536 0ZM4.54421 0C6.09275 0 7.34808 1.25534 7.34808 2.80387C7.34808 4.35241 6.09275 5.60775 4.54421 5.60775C2.99567 5.60775 1.74034 4.35241 1.74034 2.80387C1.74034 1.25534 2.99567 0 4.54421 0Z" fill="#838A8D"/>
</svg>
