<svg width="48" height="48" viewBox="0 0 48 48" fill="none" xmlns="http://www.w3.org/2000/svg">
<path d="M24 48C37.2548 48 48 37.2548 48 24C48 10.7452 37.2548 0 24 0C10.7452 0 0 10.7452 0 24C0 37.2548 10.7452 48 24 48Z" fill="#CCE6F1"/>
<rect x="11" y="16" width="27" height="16" rx="2" fill="#87C4DE"/>
<g clip-path="url(#clip0_905_2587)">
<path fill-rule="evenodd" clip-rule="evenodd" d="M18.8725 22.1828C19.5183 22.6803 19.861 23.4212 19.8481 24.4937C19.847 24.587 19.7711 24.662 19.6778 24.662H13.9583C13.8646 24.662 13.7886 24.5864 13.788 24.4928C13.7808 23.3995 14.1068 22.6203 14.7734 22.176C14.9933 22.0295 15.2757 22.0114 15.5127 22.1286C16.0655 22.402 16.4333 22.5198 16.737 22.5184C17.1432 22.5166 17.6894 22.3788 18.1333 22.1324C18.349 22.0127 18.6289 22.0222 18.8725 22.1828ZM16.8181 18.7879C17.7193 18.7879 18.4498 19.5393 18.4498 20.4662C18.4498 21.3931 17.7193 22.1445 16.8181 22.1445C15.917 22.1445 15.1864 21.3931 15.1864 20.4662C15.1864 19.5393 15.917 18.7879 16.8181 18.7879Z" fill="#0081B7"/>
</g>
<rect x="22.6365" y="18.9091" width="4.82" height="1.09091" rx="0.545455" fill="#0081B7"/>
<rect x="22.6365" y="21.0909" width="10.64" height="1.09091" rx="0.545455" fill="#0081B7"/>
<rect x="22.6365" y="23.2727" width="13" height="1.09091" rx="0.545455" fill="#0081B7"/>
<rect x="12.4546" y="29.0909" width="23.91" height="1.09091" rx="0.545455" fill="#0081B7"/>
<rect x="28.1819" y="18.9091" width="6.8" height="1.09091" rx="0.545455" fill="#0081B7"/>
<path d="M23.447 25.4546C22.5918 26.9617 22.4134 27.6054 22.9116 27.3857C23.3178 27.2066 23.7618 26.4916 24.0548 26.2353C24.1892 26.1178 24.0556 26.6972 24.2158 26.7096C24.3402 26.7193 24.7573 26.1971 24.876 25.9569C24.9031 25.9021 24.9632 26.8964 25.1981 26.7096C26.1127 25.9826 24.6635 27.0023 28.8275 26.7948" stroke="#0081B7" stroke-width="0.25"/>
<path d="M29.8259 26.885H30.6248" stroke="#0081B7" stroke-width="0.25"/>
<defs>
<clipPath id="clip0_905_2587">
<rect width="7.27273" height="7.27273" fill="white" transform="translate(13.1819 18.1818)"/>
</clipPath>
</defs>
</svg>
