<svg width="25" height="25" viewBox="0 0 25 25" fill="none" xmlns="http://www.w3.org/2000/svg">
<path d="M22 8.5V20.3415C22 20.9856 21.4408 21.5 20.7609 21.5H4.23913C3.55918 21.5 3 20.9856 3 20.3415V8.5H22ZM9 16.1H6.5V18.6H9V16.1ZM14 16.1H11.5V18.6H14V16.1ZM19 16.1H16.5V18.6H19V16.1ZM9 11.1H6.5V13.6H9V11.1ZM14 11.1H11.5V13.6H14V11.1ZM19 11.1H16.5V13.6H19V11.1ZM7.67179 2.5C8.35174 2.5 8.91092 3.01444 8.91092 3.65854V3.98293H16.0891V3.65854C16.0891 3.01444 16.6483 2.5 17.3282 2.5H17.5371C18.2171 2.5 18.7762 3.01444 18.7762 3.65854V3.98293H20.7609C21.4408 3.98293 22 4.49737 22 5.14146V7.5H3V5.14146C3 4.49737 3.55918 3.98293 4.23913 3.98293H6.22375V3.65854C6.22375 3.01444 6.78293 2.5 7.46288 2.5H7.67179Z" fill="#E8200D"/>
</svg>
