<svg width="41" height="46" viewBox="0 0 41 46" fill="none" xmlns="http://www.w3.org/2000/svg">
<path fill-rule="evenodd" clip-rule="evenodd" d="M36.3483 30.5072C36.3483 36.1274 32.3721 43.8471 24.886 44.0009L24.658 44.0033H17.4502C12.4677 44.0033 5.87842 40.249 5.87842 30.5072C5.87842 24.4954 9.18363 19.0621 15.7941 14.2074C15.8791 14.2796 15.9845 14.3215 16.0985 14.3215H25.1188C25.3032 14.3215 25.465 14.2117 25.5564 14.0464C32.7512 18.4175 36.3483 23.9045 36.3483 30.5072ZM22.0847 19.8418H20.5369V21.7111C19.3037 21.8232 18.3158 22.2435 17.5734 22.9721C16.831 23.7006 16.4598 24.5891 16.4598 25.6375C16.4598 26.0067 16.5022 26.3463 16.5872 26.6562C16.6721 26.966 16.7822 27.2364 16.9175 27.4672C17.0528 27.6979 17.2289 27.9139 17.446 28.115C17.6631 28.3161 17.8786 28.4825 18.0925 28.6144C18.3064 28.7463 18.5628 28.8749 18.8617 29.0001C19.1605 29.1254 19.4326 29.226 19.678 29.3018C19.8743 29.3624 20.0968 29.4263 20.3455 29.4933L20.5369 29.5441V33.4705C19.8825 33.365 19.2769 33.1474 18.7201 32.8177C18.2329 32.5293 17.8119 32.1954 17.4571 31.8161L17.3092 31.6507L16.0351 33.4903C17.1464 34.6993 18.5738 35.3948 20.3173 35.5768L20.5369 35.5969V37.4266H22.0847V35.5969C22.7893 35.5309 23.4138 35.376 23.958 35.132C24.5023 34.8881 24.9411 34.5765 25.2746 34.1974C25.6081 33.8183 25.8582 33.398 26.0249 32.9364C26.1917 32.4749 26.275 31.9804 26.275 31.4529C26.275 30.932 26.1901 30.4622 26.0202 30.0435C25.8503 29.6249 25.6411 29.282 25.3926 29.015C25.1441 28.7479 24.8185 28.5023 24.4158 28.2781C24.0131 28.054 23.6435 27.8842 23.3068 27.7688C23.0183 27.6699 22.6778 27.5649 22.2853 27.4539L22.0847 27.3979V23.8968C23.0477 24.0999 23.8683 24.5298 24.5464 25.1866L24.6895 25.3309L25.9636 23.5704C24.9689 22.572 23.7487 21.9683 22.3032 21.7592L22.0847 21.7308V19.8418ZM22.0847 29.9694C22.6887 30.1672 23.1511 30.3946 23.472 30.6518C23.7929 30.9089 23.9533 31.2485 23.9533 31.6705C23.9533 32.1056 23.7976 32.4947 23.4862 32.8375C23.2007 33.1518 22.7843 33.3608 22.2371 33.4646L22.0847 33.4903V29.9694ZM20.5369 23.788V26.9726C19.9643 26.788 19.5286 26.5803 19.2297 26.3496C18.9309 26.1188 18.7814 25.8188 18.7814 25.4496C18.7814 25.0078 18.9387 24.6386 19.2533 24.3419C19.5679 24.0451 19.9958 23.8605 20.5369 23.788ZM28.961 5.82919C27.3182 8.07463 25.8504 10.1253 24.5574 11.981L16.6287 11.9811C15.2791 10.2122 13.784 8.16127 12.1427 5.82919C11.2086 4.50194 12.1427 2.24561 14.0834 2.70134C17.2583 3.37624 18.5416 3.48187 19.5967 3.48799L19.8254 3.48792C19.9008 3.48749 19.9756 3.48671 20.0506 3.48576L20.2007 3.4837C20.4016 3.48081 20.6062 3.47762 20.8267 3.47762C22.3984 3.47762 24.5219 3.17484 27.0341 2.70134C28.9943 2.24561 30.4302 3.8209 28.961 5.82919Z" fill="#0081B7"/>
</svg>
