<svg width="31" height="31" viewBox="0 0 31 31" fill="none" xmlns="http://www.w3.org/2000/svg">
<path d="M15.5 31C24.0604 31 31 24.0604 31 15.5C31 6.93959 24.0604 0 15.5 0C6.93959 0 0 6.93959 0 15.5C0 24.0604 6.93959 31 15.5 31Z" fill="#CCE6F1"/>
<path d="M20.906 12.1787L17.4651 9.29139L17.9651 8.69549C18.7624 7.74529 20.179 7.62135 21.1292 8.41866V8.41866C22.0794 9.21597 22.2033 10.6326 21.406 11.5828L20.906 12.1787Z" fill="#0081B7"/>
<path d="M12.4836 22.1322L9.04269 19.2449L16.9828 9.78231L20.4237 12.6696L12.4836 22.1322Z" fill="#87C4DE"/>
<path d="M8.70358 19.8287L7.94567 23.1149C7.85894 23.491 8.21288 23.8193 8.58139 23.7047L11.9875 22.6452L8.70358 19.8287Z" fill="#0081B7"/>
</svg>
