<svg width="12" height="12" viewBox="0 0 12 12" fill="none" xmlns="http://www.w3.org/2000/svg">
<path d="M11.9632 4.28704C11.8864 4.0845 11.6993 3.95561 11.4881 3.95561H7.64365L6.48696 0.599846C6.41496 0.392701 6.21338 0.25 5.9878 0.25C5.77182 0.25 5.58465 0.378891 5.51745 0.57683L4.35596 3.95561H0.511528C0.300348 3.95561 0.113163 4.0845 0.0363709 4.28704C-0.0452213 4.49879 0.0123744 4.72435 0.189957 4.86705L3.34326 7.21931L2.16737 11.1183C2.10018 11.3254 2.17697 11.5418 2.36415 11.6614C2.45534 11.7213 2.55613 11.7489 2.65692 11.7489C2.76731 11.7489 2.8729 11.7121 2.96889 11.6476L6.0022 9.41966L9.03552 11.6384C9.2131 11.7673 9.44828 11.7765 9.63546 11.6522C9.82264 11.5279 9.89943 11.307 9.83704 11.1044L8.66115 7.19629L11.824 4.85785C11.9872 4.72896 12.0448 4.49879 11.9632 4.28704Z" fill="#0081B7"/>
</svg>
