<svg width="24" height="24" viewBox="0 0 24 24" fill="none" xmlns="http://www.w3.org/2000/svg">
<path fill-rule="evenodd" clip-rule="evenodd" d="M13.8212 4.0695C13.0247 2.6585 10.9328 2.63575 10.1389 4.04826C7.49498 8.75254 4.37379 14.0445 2.35357 17.9154C1.68393 19.1985 2.63017 20.6757 4.07749 20.6757C7.9823 20.6757 12.0001 20.6757 12.0001 20.6757C12.0001 20.6757 13.6513 20.6757 19.9997 20.6757C21.4269 20.6757 22.3808 19.2308 21.7416 17.9548C19.542 13.5637 16.3355 8.5233 13.8212 4.0695ZM13.154 16.5219C13.154 17.1592 12.6374 17.6757 12.0001 17.6757C11.3629 17.6757 10.8463 17.1592 10.8463 16.5219C10.8463 15.8846 11.3629 15.3681 12.0001 15.3681C12.6374 15.3681 13.154 15.8846 13.154 16.5219ZM13.154 12.6757C13.154 13.313 12.6374 13.8296 12.0001 13.8296C11.3629 13.8296 10.8463 13.313 10.8463 12.6757V8.8296C10.8463 8.19234 11.3629 7.67575 12.0001 7.67575C12.6374 7.67575 13.154 8.19234 13.154 8.82959V12.6757Z" fill="#0081B7"/>
</svg>
